<mxfile host="app.diagrams.net" modified="2024-04-18T09:08:12.657Z" agent="Mozilla/5.0 (Windows NT 10.0; Win64; x64) AppleWebKit/537.36 (KHTML, like Gecko) Chrome/123.0.0.0 Safari/537.36" etag="UFlGLjnhGwTeeWjwLUCZ" version="24.2.5" type="device">
  <diagram name="Page-1" id="Nj-swrl-I4tftJ30ZKnp">
    <mxGraphModel dx="1050" dy="522" grid="1" gridSize="10" guides="1" tooltips="1" connect="1" arrows="1" fold="1" page="1" pageScale="1" pageWidth="827" pageHeight="1169" math="0" shadow="0">
      <root>
        <mxCell id="0" />
        <mxCell id="1" parent="0" />
        <mxCell id="xw99lX4RwJMbNwSzj4gn-1" style="edgeStyle=orthogonalEdgeStyle;rounded=0;orthogonalLoop=1;jettySize=auto;html=1;entryX=0.5;entryY=1;entryDx=0;entryDy=0;" edge="1" parent="1" source="xw99lX4RwJMbNwSzj4gn-2" target="xw99lX4RwJMbNwSzj4gn-3">
          <mxGeometry relative="1" as="geometry" />
        </mxCell>
        <mxCell id="xw99lX4RwJMbNwSzj4gn-18" style="edgeStyle=orthogonalEdgeStyle;rounded=0;orthogonalLoop=1;jettySize=auto;html=1;entryX=0.5;entryY=0;entryDx=0;entryDy=0;" edge="1" parent="1" source="xw99lX4RwJMbNwSzj4gn-2" target="xw99lX4RwJMbNwSzj4gn-16">
          <mxGeometry relative="1" as="geometry" />
        </mxCell>
        <mxCell id="xw99lX4RwJMbNwSzj4gn-2" value="~" style="ellipse;whiteSpace=wrap;html=1;aspect=fixed;fontSize=50;" vertex="1" parent="1">
          <mxGeometry x="230" y="130" width="60" height="60" as="geometry" />
        </mxCell>
        <mxCell id="xw99lX4RwJMbNwSzj4gn-17" style="edgeStyle=orthogonalEdgeStyle;rounded=0;orthogonalLoop=1;jettySize=auto;html=1;exitX=0.5;exitY=0;exitDx=0;exitDy=0;" edge="1" parent="1" source="xw99lX4RwJMbNwSzj4gn-3">
          <mxGeometry relative="1" as="geometry">
            <mxPoint x="260" y="70" as="targetPoint" />
          </mxGeometry>
        </mxCell>
        <mxCell id="xw99lX4RwJMbNwSzj4gn-3" value="" style="shape=sumEllipse;perimeter=ellipsePerimeter;whiteSpace=wrap;html=1;backgroundOutline=1;" vertex="1" parent="1">
          <mxGeometry x="240" y="50" width="40" height="40" as="geometry" />
        </mxCell>
        <mxCell id="xw99lX4RwJMbNwSzj4gn-4" value="channel" style="shape=cylinder3;whiteSpace=wrap;html=1;boundedLbl=1;backgroundOutline=1;size=15;" vertex="1" parent="1">
          <mxGeometry x="730" y="270" width="60" height="210" as="geometry" />
        </mxCell>
        <mxCell id="xw99lX4RwJMbNwSzj4gn-6" style="edgeStyle=orthogonalEdgeStyle;rounded=0;orthogonalLoop=1;jettySize=auto;html=1;entryX=0;entryY=0.5;entryDx=0;entryDy=0;" edge="1" parent="1" source="xw99lX4RwJMbNwSzj4gn-7" target="xw99lX4RwJMbNwSzj4gn-3">
          <mxGeometry relative="1" as="geometry" />
        </mxCell>
        <mxCell id="xw99lX4RwJMbNwSzj4gn-20" style="edgeStyle=orthogonalEdgeStyle;rounded=0;orthogonalLoop=1;jettySize=auto;html=1;" edge="1" parent="1" source="xw99lX4RwJMbNwSzj4gn-7" target="xw99lX4RwJMbNwSzj4gn-19">
          <mxGeometry relative="1" as="geometry" />
        </mxCell>
        <mxCell id="xw99lX4RwJMbNwSzj4gn-7" value="m(t)" style="verticalLabelPosition=bottom;verticalAlign=top;html=1;shape=mxgraph.basic.polygon;polyCoords=[[0.25,0],[0.75,0],[1,0.25],[1,0.75],[0.75,1],[0.25,1],[0,0.75],[0,0.25]];polyline=0;" vertex="1" parent="1">
          <mxGeometry x="50" y="40" width="60" height="60" as="geometry" />
        </mxCell>
        <mxCell id="xw99lX4RwJMbNwSzj4gn-8" value="m`(t)" style="verticalLabelPosition=bottom;verticalAlign=top;html=1;shape=mxgraph.basic.polygon;polyCoords=[[0.25,0],[0.75,0],[1,0.25],[1,0.75],[0.75,1],[0.25,1],[0,0.75],[0,0.25]];polyline=0;" vertex="1" parent="1">
          <mxGeometry x="40" y="585" width="60" height="60" as="geometry" />
        </mxCell>
        <mxCell id="xw99lX4RwJMbNwSzj4gn-9" value="" style="edgeStyle=segmentEdgeStyle;endArrow=classic;html=1;curved=0;rounded=0;endSize=8;startSize=8;entryX=1;entryY=0.5;entryDx=0;entryDy=0;" edge="1" parent="1" source="xw99lX4RwJMbNwSzj4gn-4">
          <mxGeometry width="50" height="50" relative="1" as="geometry">
            <mxPoint x="740" y="500" as="sourcePoint" />
            <mxPoint x="650" y="615" as="targetPoint" />
            <Array as="points">
              <mxPoint x="750" y="615" />
            </Array>
          </mxGeometry>
        </mxCell>
        <mxCell id="xw99lX4RwJMbNwSzj4gn-10" style="edgeStyle=orthogonalEdgeStyle;rounded=0;orthogonalLoop=1;jettySize=auto;html=1;entryX=0.5;entryY=1;entryDx=0;entryDy=0;" edge="1" parent="1" source="xw99lX4RwJMbNwSzj4gn-11" target="xw99lX4RwJMbNwSzj4gn-13">
          <mxGeometry relative="1" as="geometry" />
        </mxCell>
        <mxCell id="xw99lX4RwJMbNwSzj4gn-11" value="~" style="ellipse;whiteSpace=wrap;html=1;aspect=fixed;fontSize=50;" vertex="1" parent="1">
          <mxGeometry x="600" y="760" width="60" height="60" as="geometry" />
        </mxCell>
        <mxCell id="xw99lX4RwJMbNwSzj4gn-12" style="edgeStyle=orthogonalEdgeStyle;rounded=0;orthogonalLoop=1;jettySize=auto;html=1;entryX=1;entryY=0.5;entryDx=0;entryDy=0;" edge="1" parent="1" source="xw99lX4RwJMbNwSzj4gn-13" target="xw99lX4RwJMbNwSzj4gn-15">
          <mxGeometry relative="1" as="geometry" />
        </mxCell>
        <mxCell id="xw99lX4RwJMbNwSzj4gn-13" value="" style="shape=sumEllipse;perimeter=ellipsePerimeter;whiteSpace=wrap;html=1;backgroundOutline=1;" vertex="1" parent="1">
          <mxGeometry x="610" y="595" width="40" height="40" as="geometry" />
        </mxCell>
        <mxCell id="xw99lX4RwJMbNwSzj4gn-14" style="edgeStyle=orthogonalEdgeStyle;rounded=0;orthogonalLoop=1;jettySize=auto;html=1;" edge="1" parent="1" source="xw99lX4RwJMbNwSzj4gn-15" target="xw99lX4RwJMbNwSzj4gn-8">
          <mxGeometry relative="1" as="geometry">
            <mxPoint x="230" y="615" as="targetPoint" />
          </mxGeometry>
        </mxCell>
        <mxCell id="xw99lX4RwJMbNwSzj4gn-15" value="LPF" style="rounded=0;whiteSpace=wrap;html=1;" vertex="1" parent="1">
          <mxGeometry x="340" y="585" width="120" height="60" as="geometry" />
        </mxCell>
        <mxCell id="xw99lX4RwJMbNwSzj4gn-22" value="" style="edgeStyle=orthogonalEdgeStyle;rounded=0;orthogonalLoop=1;jettySize=auto;html=1;" edge="1" parent="1" source="xw99lX4RwJMbNwSzj4gn-16" target="xw99lX4RwJMbNwSzj4gn-21">
          <mxGeometry relative="1" as="geometry" />
        </mxCell>
        <mxCell id="xw99lX4RwJMbNwSzj4gn-16" value="90 Phase Shift" style="rounded=0;whiteSpace=wrap;html=1;" vertex="1" parent="1">
          <mxGeometry x="220" y="230" width="80" height="40" as="geometry" />
        </mxCell>
        <mxCell id="xw99lX4RwJMbNwSzj4gn-23" style="edgeStyle=orthogonalEdgeStyle;rounded=0;orthogonalLoop=1;jettySize=auto;html=1;entryX=0;entryY=0.5;entryDx=0;entryDy=0;" edge="1" parent="1" source="xw99lX4RwJMbNwSzj4gn-19" target="xw99lX4RwJMbNwSzj4gn-21">
          <mxGeometry relative="1" as="geometry" />
        </mxCell>
        <mxCell id="xw99lX4RwJMbNwSzj4gn-19" value="Hilbert" style="rounded=0;whiteSpace=wrap;html=1;" vertex="1" parent="1">
          <mxGeometry x="50" y="320" width="60" height="40" as="geometry" />
        </mxCell>
        <mxCell id="xw99lX4RwJMbNwSzj4gn-21" value="" style="shape=sumEllipse;perimeter=ellipsePerimeter;whiteSpace=wrap;html=1;backgroundOutline=1;" vertex="1" parent="1">
          <mxGeometry x="240" y="320" width="40" height="40" as="geometry" />
        </mxCell>
        <mxCell id="xw99lX4RwJMbNwSzj4gn-24" value="" style="verticalLabelPosition=bottom;verticalAlign=top;html=1;shape=mxgraph.flowchart.summing_function;" vertex="1" parent="1">
          <mxGeometry x="480" y="190" width="40" height="40" as="geometry" />
        </mxCell>
        <mxCell id="xw99lX4RwJMbNwSzj4gn-25" style="edgeStyle=orthogonalEdgeStyle;rounded=0;orthogonalLoop=1;jettySize=auto;html=1;entryX=0.5;entryY=0;entryDx=0;entryDy=0;entryPerimeter=0;" edge="1" parent="1" source="xw99lX4RwJMbNwSzj4gn-3" target="xw99lX4RwJMbNwSzj4gn-24">
          <mxGeometry relative="1" as="geometry" />
        </mxCell>
        <mxCell id="xw99lX4RwJMbNwSzj4gn-26" style="edgeStyle=orthogonalEdgeStyle;rounded=0;orthogonalLoop=1;jettySize=auto;html=1;entryX=0.5;entryY=1;entryDx=0;entryDy=0;entryPerimeter=0;" edge="1" parent="1" source="xw99lX4RwJMbNwSzj4gn-21" target="xw99lX4RwJMbNwSzj4gn-24">
          <mxGeometry relative="1" as="geometry" />
        </mxCell>
        <mxCell id="xw99lX4RwJMbNwSzj4gn-27" style="edgeStyle=orthogonalEdgeStyle;rounded=0;orthogonalLoop=1;jettySize=auto;html=1;entryX=0.5;entryY=0;entryDx=0;entryDy=0;entryPerimeter=0;" edge="1" parent="1" source="xw99lX4RwJMbNwSzj4gn-24" target="xw99lX4RwJMbNwSzj4gn-4">
          <mxGeometry relative="1" as="geometry" />
        </mxCell>
      </root>
    </mxGraphModel>
  </diagram>
</mxfile>
